<?xml version="1.0" encoding="utf-8"?>
<!-- Svg Vector Icons : http://www.onlinewebfonts.com/icon -->
<!DOCTYPE svg PUBLIC "-//W3C//DTD SVG 1.1//EN" "http://www.w3.org/Graphics/SVG/1.1/DTD/svg11.dtd">
<svg version="1.1" xmlns="http://www.w3.org/2000/svg" xmlns:xlink="http://www.w3.org/1999/xlink" x="0px" y="0px" viewBox="0 0 256 256" enable-background="new 0 0 256 256" xml:space="preserve">
<metadata> Svg Vector Icons : http://www.onlinewebfonts.com/icon </metadata>
<g><g><g><path fill="#000000" d="M168.2,25c-2.9,1-5.7,3.6-7.5,6.9l-1.6,3L159,71.7c-0.1,30.7-0.2,36.8-0.8,36.8c-1.4,0-9.2,2.5-12.6,4c-4.6,2.1-10.5,6.1-14.3,9.6c-2,1.9-3.1,2.6-3.4,2.3c-0.3-0.3-0.5-14-0.5-38.7V47.5h2.4h2.4V44v-3.6l-19.4,0.1c-18.9,0.1-19.5,0.2-21.4,1.2c-3.1,1.7-6.2,5.5-7.3,9c-0.9,3-1,4.4-1,37.9v34.8l-12.7,17.8c-29.2,41.1-38,53.7-39.8,57.1c-8.1,16,0.3,29.6,20.1,32.6c6.8,1,102.3,1,109.1,0c10.4-1.6,18.2-6.2,21.2-12.8l1.2-2.6h6.8c11.7,0,19.9-1.8,28.5-6.3c17.8-9.2,28.5-27.2,28.5-47.7c0-18-8.1-33.9-22.6-44.2c-5.2-3.7-13.4-7.3-19.4-8.6l-1.3-0.2V69.9V31.3h2.6h2.6v-3.6v-3.6l-18.9,0C173.8,24.3,169.7,24.4,168.2,25z M195.6,72.9v41.5l3.7,0.6c10.8,1.7,21.3,7.3,27.8,14.9c3.8,4.4,8,11.2,8,12.9c0,1.2-1.8,2.6-3.3,2.6c-1.3,0-1.7-0.5-4.1-4.1c-6.9-10.8-17.7-17.7-32-20.6c-2.6-0.5-4.9-1-5-1c-0.1,0-0.3-7.2-0.3-15.9V88h-12.1H166V62.7c0-34.1-1.5-31.3,17.3-31.3h12.2V72.9z M120.4,86.7v39.2l12.8,18c7.1,9.9,12.8,18.5,12.8,19c0,2.2-3,3.5-4.9,2c-0.4-0.3-7.3-9.7-15.2-20.8l-14.5-20.2l-10.4-0.2l-10.4-0.2l-0.1-34.5c-0.1-38.4-0.2-37.1,3-40l1.7-1.4h12.6h12.6V86.7z M183.2,111v15.8l5.1,0.3c14.5,0.7,28.5,8.9,34.4,19.9c1.9,3.6,4.2,5.1,8,5.5c2.2,0.2,3.3,0,4.9-0.7l2.2-1l0.5,3c0.8,4.7,0.6,12.8-0.4,17.8c-3.3,16.2-15.5,29.6-31.3,34.6c-5.2,1.7-10.7,2.3-17.8,2.1l-5.9-0.1l-0.9-3.4c-0.5-1.9-1.6-4.8-2.4-6.4c-1.5-3-11.7-17.6-35.4-50.9l-11.7-16.4l2.8-2.8c3.5-3.6,7.6-6.5,12.3-8.9c4.8-2.4,7.7-3.3,13.4-4.3l4.6-0.8l0.1-9.7l0.1-9.6h8.6h8.6L183.2,111L183.2,111z M121.7,150.5c15.7,21.9,15.3,21.5,20.3,22c2.9,0.3,5.3-0.4,7.4-2.1c1.2-1,1.5-1.1,2.1-0.6c1.9,2,21,29.7,22.2,32.1c5.6,11.7-0.2,19.9-15.5,22.1c-2.7,0.4-18.6,0.5-55.4,0.4c-47.8-0.1-51.8-0.2-54.5-1c-6.4-1.9-9.8-4.1-12-7.9c-1.1-1.9-1.3-2.7-1.2-5.8c0-4.4,1.1-7.3,4.9-12.8c2.8-4.1,17.7-25.2,36.7-51.9l10.3-14.6h10.2l10.2,0L121.7,150.5z"/><path fill="#000000" d="M176,46.8v3.6h7.9h7.9v-3.6v-3.6h-7.9H176V46.8z"/><path fill="#000000" d="M176,71.6v3.6h7.9h7.9v-3.6V68h-7.9H176V71.6z"/><path fill="#000000" d="M101.3,63.5V67h7.6h7.6v-3.6v-3.6h-7.6h-7.6V63.5L101.3,63.5z"/><path fill="#000000" d="M101.3,88.2v3.6h7.6h7.6v-3.6v-3.6h-7.6h-7.6V88.2L101.3,88.2z"/><path fill="#000000" d="M101.3,113.1v3.5h7.6h7.6v-3.3v-3.3l-1.5,0c-0.9,0-4.3-0.1-7.7-0.1l-6-0.1V113.1z"/><path fill="#000000" d="M166.5,126.5c-5.2,1.7-8.3,5.7-8.3,10.8c0,7.2,6.6,12.4,13.6,10.7c3.6-0.9,7.1-4.5,8-8c1.6-6.6-3.1-13-9.9-13.6C168.7,126.2,167.2,126.3,166.5,126.5z M171.5,132.5c1.6,0.7,3.1,3.1,3.1,4.7c0,1.7-1.5,4-3.2,4.8c-2.2,1-4.4,0.6-6.1-1.2c-1.9-2-2-5-0.2-6.9C167.1,131.7,168.9,131.3,171.5,132.5z"/><path fill="#000000" d="M202.3,156.9c-2.9,1-6.9,4.9-8.2,7.9c-1.5,3.5-1.6,8.7,0,12.1c1.4,3,4.9,6.5,7.9,7.9c3.8,1.7,8.4,1.5,12.3-0.5c11.3-5.6,11.1-21.7-0.3-26.9C211,155.9,205.6,155.7,202.3,156.9z M212,163.3c5.9,3.4,5.9,11.6,0,14.9c-5.7,3.2-12.8-1-12.8-7.5C199.3,164.2,206.4,160.1,212,163.3z"/><path fill="#000000" d="M91.7,141.1c-2.9,0.9-6.1,4-6.9,6.7c-1.7,5.6,0.2,10.5,5,13.4c1.8,1,2.8,1.3,5.3,1.3c4.6,0,8-2.1,9.9-6.1c3-6.3-0.1-13.3-6.8-15.3C95.5,140.2,94.6,140.2,91.7,141.1z M97.5,146.8c2,1,2.9,2.5,2.9,4.9c0,3.3-3.3,5.9-6.5,5.1c-0.7-0.2-1.9-1-2.6-1.7c-1.1-1-1.4-1.8-1.4-3.3c0-2.5,0.6-3.6,2.5-4.8C94.2,145.9,95.7,145.8,97.5,146.8z"/><path fill="#000000" d="M123.1,172.9c-8.8,3.2-11,15.1-4.1,21.4c6,5.5,15.7,4.1,19.8-2.8c1.7-3,2.1-7.9,0.9-11C137.2,174,129.6,170.6,123.1,172.9z M130.3,179.1c3.3,1.8,4.7,5.2,3.3,8.5c-1,2.3-3.3,3.7-6.2,3.7c-1.9,0-2.5-0.2-4-1.6c-1.5-1.4-1.8-2-1.9-4.2c-0.1-2,0-2.9,0.8-4.1C123.9,178.7,127.6,177.7,130.3,179.1z"/><path fill="#000000" d="M73.4,179.6c-10.5,3.4-15.7,15-11.1,24.7c1.7,3.5,4.9,6.7,8.5,8.5c2.9,1.4,3.5,1.6,7.7,1.6c3.9,0,4.9-0.2,7.2-1.3c7.4-3.5,11.8-11.4,10.4-19.1c-1-5.9-4.9-11-10.4-13.5C82.4,178.9,76.6,178.5,73.4,179.6z M82.6,186.3c9,3.8,9.7,16.1,1,20.4c-7.7,3.8-16.3-1.5-16.3-9.9c0-4.4,2.8-8.7,6.9-10.4C76.3,185.4,80.4,185.4,82.6,186.3z"/><path fill="#000000" d="M19.3,41.1c-3.9,1.4-7.1,5-8.6,9.6c-0.7,2.2-0.8,6.9-0.7,54.5c0.1,51.8,0.1,52.1,1.1,54.7c2.3,6,4.9,9.4,8.5,11c1.7,0.8,3.2,0.9,12.2,0.9s10.5-0.1,12.2-0.9c2.7-1.2,5.1-3.8,6.9-7.2c3-5.8,2.9-3.7,2.9-62.5V47.5h2.6H59V44v-3.6H40.1C25.5,40.4,20.7,40.6,19.3,41.1z M46.6,88v40.5l-1.2,0.3c-0.7,0.1-1.7,0.1-2.4,0l-1.2-0.3v-14.3V99.9H29.5H17.1V76.7c0-21.8,0.1-23.3,1-25.2c1.7-3.8,2.3-3.9,16.3-3.9h12.2V88z M34.7,118.2c0,10.3,0.1,11.4,1,13.1c1.4,2.8,4,4.3,7.9,4.6l3.1,0.3v9.1c0,11.3-0.9,15.2-4.1,18.2c-1.2,1.1-1.4,1.1-10.6,1.1h-9.4l-1.5-1.5c-0.8-0.8-2-2.7-2.5-4.1c-1.1-2.6-1.1-3-1.2-27.3L17,107h8.9h8.8V118.2z"/><path fill="#000000" d="M27.5,63.5V67h7.9h7.9v-3.6v-3.6h-7.9h-7.9V63.5z"/><path fill="#000000" d="M27.5,88.2v3.6h7.9h7.9v-3.6v-3.6h-7.9h-7.9V88.2z"/><path fill="#000000" d="M22.8,113.6c-2.3,1.1-3.8,3.6-3.8,6.2c0,8.8,12.9,9.4,13.7,0.6c0.3-3-1-5.2-3.7-6.6C26.5,112.5,25,112.4,22.8,113.6z M27,118.4c0.9,0.5,0.5,2.4-0.5,3.1c-0.7,0.4-1,0.3-1.8-0.6C23.1,119,24.9,117.1,27,118.4z"/><path fill="#000000" d="M30.6,143c-1.5,0.8-3,2-3.8,3.2c-1.2,1.8-1.4,2.4-1.4,5.6c0,3.1,0.2,3.9,1.3,5.6c1.8,2.7,5.7,4.6,8.9,4.3c3.1-0.3,5.7-1.7,7.3-4c2.6-3.7,2.7-7.7,0.1-11.5C40.3,142,35,140.7,30.6,143z M37.4,148.2c1.6,1.1,2.3,3.3,1.6,5c-1.9,4.6-8.1,3.5-8.1-1.4C30.9,148.2,34.5,146.2,37.4,148.2z"/></g></g></g>
</svg>