<?xml version="1.0" encoding="iso-8859-1"?>
<!-- Uploaded to: SVG Repo, www.svgrepo.com, Generator: SVG Repo Mixer Tools -->
<svg height="800px" width="800px" version="1.1" id="Layer_1" xmlns="http://www.w3.org/2000/svg" xmlns:xlink="http://www.w3.org/1999/xlink" 
	 viewBox="0 0 512 512" xml:space="preserve">
<path style="fill:#FDD042;" d="M418.133,0H93.867C75.045,0,59.733,15.312,59.733,34.133v443.733
	c0,18.821,15.312,34.133,34.133,34.133h324.267c18.821,0,34.133-15.312,34.133-34.133V34.133C452.267,15.312,436.955,0,418.133,0z"
	/>
<path style="fill:#F2C127;" d="M418.133,31.171H93.867c-18.821,0-34.133,15.312-34.133,34.133v42.667
	c0,3.018,1.594,5.811,4.192,7.346L234.294,215.99c13.261,7.835,30.15,7.836,43.411,0l170.369-100.672
	c2.598-1.535,4.192-4.329,4.192-7.346V65.306C452.267,46.483,436.955,31.171,418.133,31.171z"/>
<path style="fill:#88898E;" d="M204.8,268.8c-7.069,0-12.8-5.731-12.8-12.8V153.6c0-25.879,21.054-46.933,46.933-46.933H256
	c7.069,0,12.8,5.731,12.8,12.8c0,7.069-5.731,12.8-12.8,12.8h-17.067c-11.763,0-21.333,9.57-21.333,21.333V256
	C217.6,263.069,211.869,268.8,204.8,268.8z"/>
<path style="fill:#FDD042;" d="M418.133,0H93.867C75.045,0,59.733,15.312,59.733,34.133V76.8c0,3.018,1.594,5.811,4.192,7.346
	l170.369,100.673c13.261,7.835,30.15,7.836,43.411,0L448.075,84.147c2.598-1.536,4.192-4.33,4.192-7.347V34.133
	C452.267,15.312,436.955,0,418.133,0z"/>
<path style="fill:#88898E;" d="M307.2,268.8c-7.069,0-12.8-5.731-12.8-12.8V153.6c0-11.763-9.57-21.333-21.333-21.333H256
	c-7.069,0-12.8-5.731-12.8-12.8c0-7.069,5.731-12.8,12.8-12.8h17.067c25.879,0,46.933,21.054,46.933,46.933V256
	C320,263.069,314.269,268.8,307.2,268.8z"/>
<path style="fill:#E5563C;" d="M315.733,247.467H196.267c-14.116,0-25.6,11.484-25.6,25.6v128c0,4.713,3.821,8.533,8.533,8.533
	h153.6c4.713,0,8.533-3.821,8.533-8.533v-128C341.333,258.95,329.85,247.467,315.733,247.467z"/>
<path style="fill:#CF442B;" d="M196.267,401.067v-128c0-14.116,11.484-25.6,25.6-25.6h-25.6c-14.116,0-25.6,11.484-25.6,25.6v128
	c0,4.713,3.821,8.533,8.533,8.533h25.6C200.087,409.6,196.267,405.779,196.267,401.067z"/>
<path style="fill:#4C4E55;" d="M256,384c-4.713,0-8.533-3.821-8.533-8.533v-34.133c0-4.713,3.821-8.533,8.533-8.533
	c4.713,0,8.533,3.821,8.533,8.533v34.133C264.533,380.179,260.713,384,256,384z"/>
<path style="fill:#606268;" d="M256,281.6c-18.821,0-34.133,15.312-34.133,34.133c0,18.821,15.312,34.133,34.133,34.133
	c18.821,0,34.133-15.312,34.133-34.133C290.133,296.912,274.821,281.6,256,281.6z"/>
<path style="fill:#4C4E55;" d="M264.533,341.333c-18.821,0-34.133-15.312-34.133-34.133c0-7.235,2.27-13.948,6.125-19.475
	c-8.851,6.174-14.658,16.422-14.658,28.009c0,18.821,15.312,34.133,34.133,34.133c11.586,0,21.836-5.807,28.009-14.658
	C278.481,339.064,271.769,341.333,264.533,341.333z"/>
</svg>